<svg xmlns="http://www.w3.org/2000/svg" viewBox="1089.5 811.5 935.3499755859375 580.5999755859375" width="935.3499755859375" height="580.5999755859375" style="background:white"><g><g /><g><g transform="translate(0.5,0.5)"><rect x="1109" y="831" width="895.34" height="34" fill="none" stroke="white" visibility="hidden" stroke-width="9" /><rect x="1109" y="831" width="895.34" height="34" fill="none" stroke="none" /></g><g><g /></g><g transform="translate(0.5,0.5)"><rect x="1109" y="866" width="895.34" height="25" fill="none" stroke="white" visibility="hidden" stroke-width="9" /><rect x="1109" y="866" width="895.34" height="25" fill="none" stroke="none" /></g><g><g /></g><g transform="translate(0.5,0.5)"><path d="M 1129.92 1000.2 L 1129.92 968.2 L 1322.64 968.2 L 1322.64 1000.2" fill="#173e5b" stroke="#718096" stroke-miterlimit="10" /><path d="M 1129.92 1000.2 L 1129.92 1033.48 L 1322.64 1033.48 L 1322.64 1000.2" fill="#ffffff" stroke="#718096" stroke-miterlimit="10" /><path d="M 1129.92 1000.2 L 1322.64 1000.2" fill="none" stroke="white" stroke-miterlimit="10" visibility="hidden" stroke-width="9" /><path d="M 1129.92 1000.2 L 1322.64 1000.2" fill="none" stroke="#718096" stroke-miterlimit="10" /></g><g><g /></g><g transform="translate(0.5,0.5)"><rect x="1129.92" y="1000.2" width="114.72" height="33.28" fill="#f8fafc" stroke="#cbd5e1" /></g><g><g /></g><g transform="translate(0.5,0.5)"><rect x="1244.64" y="1000.2" width="78" height="33.28" fill="#f8fafc" stroke="#cbd5e1" /></g><g><g /></g><g transform="translate(0.5,0.5)"><path d="M 1832.16 1165.8 L 1832.16 1133.8 L 2004.35 1133.8 L 2004.35 1165.8" fill="#173e5b" stroke="#718096" stroke-miterlimit="10" /><path d="M 1832.16 1165.8 L 1832.16 1199.08 L 2004.35 1199.08 L 2004.35 1165.8" fill="#ffffff" stroke="#718096" stroke-miterlimit="10" /><path d="M 1832.16 1165.8 L 2004.35 1165.8" fill="none" stroke="white" stroke-miterlimit="10" visibility="hidden" stroke-width="9" /><path d="M 1832.16 1165.8 L 2004.35 1165.8" fill="none" stroke="#718096" stroke-miterlimit="10" /></g><g><g /></g><g transform="translate(0.5,0.5)"><rect x="1832.16" y="1165.8" width="94.19" height="33.28" fill="#f8fafc" stroke="#cbd5e1" /></g><g><g /></g><g transform="translate(0.5,0.5)"><rect x="1926.35" y="1165.8" width="78" height="33.28" fill="#f8fafc" stroke="#cbd5e1" /></g><g><g /></g><g transform="translate(0.5,0.5)"><path d="M 1832.16 1273.8 L 1832.16 1241.8 L 2004.35 1241.8 L 2004.35 1273.8" fill="#173e5b" stroke="#718096" stroke-miterlimit="10" /><path d="M 1832.16 1273.8 L 1832.16 1307.08 L 2004.35 1307.08 L 2004.35 1273.8" fill="#ffffff" stroke="#718096" stroke-miterlimit="10" /><path d="M 1832.16 1273.8 L 2004.35 1273.8" fill="none" stroke="white" stroke-miterlimit="10" visibility="hidden" stroke-width="9" /><path d="M 1832.16 1273.8 L 2004.35 1273.8" fill="none" stroke="#718096" stroke-miterlimit="10" /></g><g><g /></g><g transform="translate(0.5,0.5)"><rect x="1832.16" y="1273.8" width="94.19" height="33.28" fill="#f8fafc" stroke="#cbd5e1" /></g><g><g /></g><g transform="translate(0.5,0.5)"><rect x="1926.35" y="1273.8" width="78" height="33.28" fill="#f8fafc" stroke="#cbd5e1" /></g><g><g /></g><g transform="translate(0.5,0.5)"><path d="M 1473.16 1187.16 L 1473.16 1155.16 L 1702.57 1155.16 L 1702.57 1187.16" fill="#173e5b" stroke="#718096" stroke-miterlimit="10" /><path d="M 1473.16 1187.16 L 1473.16 1285.72 L 1702.57 1285.72 L 1702.57 1187.16" fill="#ffffff" stroke="#718096" stroke-miterlimit="10" /><path d="M 1473.16 1187.16 L 1702.57 1187.16" fill="none" stroke="white" stroke-miterlimit="10" visibility="hidden" stroke-width="9" /><path d="M 1473.16 1187.16 L 1702.57 1187.16" fill="none" stroke="#718096" stroke-miterlimit="10" /></g><g><g /></g><g transform="translate(0.5,0.5)"><rect x="1473.16" y="1187.16" width="151.41" height="32.85" fill="#f8fafc" stroke="#cbd5e1" /></g><g><g /></g><g transform="translate(0.5,0.5)"><rect x="1624.57" y="1187.16" width="78" height="32.85" fill="#f8fafc" stroke="#cbd5e1" /></g><g><g /></g><g transform="translate(0.5,0.5)"><rect x="1473.16" y="1220.01" width="151.41" height="32.85" fill="#ffffff" stroke="#cbd5e1" /></g><g><g /></g><g transform="translate(0.5,0.5)"><rect x="1624.57" y="1220.01" width="78" height="32.85" fill="#ffffff" stroke="#cbd5e1" /></g><g><g /></g><g transform="translate(0.5,0.5)"><rect x="1473.16" y="1252.87" width="151.41" height="32.85" fill="#f8fafc" stroke="#cbd5e1" /></g><g><g /></g><g transform="translate(0.5,0.5)"><rect x="1624.57" y="1252.87" width="78" height="32.85" fill="#f8fafc" stroke="#cbd5e1" /></g><g><g /></g><g transform="translate(0.5,0.5)"><path d="M 1116.34 1282.68 L 1116.34 1250.68 L 1336.21 1250.68 L 1336.21 1282.68" fill="#173e5b" stroke="#718096" stroke-miterlimit="10" /><path d="M 1116.34 1282.68 L 1116.34 1348.6 L 1336.21 1348.6 L 1336.21 1282.68" fill="#ffffff" stroke="#718096" stroke-miterlimit="10" /><path d="M 1116.34 1282.68 L 1336.21 1282.68" fill="none" stroke="white" stroke-miterlimit="10" visibility="hidden" stroke-width="9" /><path d="M 1116.34 1282.68 L 1336.21 1282.68" fill="none" stroke="#718096" stroke-miterlimit="10" /></g><g><g /></g><g transform="translate(0.5,0.5)"><rect x="1116.34" y="1282.68" width="141.87" height="32.96" fill="#f8fafc" stroke="#cbd5e1" /></g><g><g /></g><g transform="translate(0.5,0.5)"><rect x="1258.21" y="1282.68" width="78" height="32.96" fill="#f8fafc" stroke="#cbd5e1" /></g><g><g /></g><g transform="translate(0.5,0.5)"><rect x="1116.34" y="1315.64" width="141.87" height="32.96" fill="#ffffff" stroke="#cbd5e1" /></g><g><g /></g><g transform="translate(0.5,0.5)"><rect x="1258.21" y="1315.64" width="78" height="32.96" fill="#ffffff" stroke="#cbd5e1" /></g><g><g /></g><g transform="translate(0.5,0.5)"><path d="M 1109 1109.16 L 1109 1077.16 L 1343.55 1077.16 L 1343.55 1109.16" fill="#173e5b" stroke="#718096" stroke-miterlimit="10" /><path d="M 1109 1109.16 L 1109 1207.72 L 1343.55 1207.72 L 1343.55 1109.16" fill="#ffffff" stroke="#718096" stroke-miterlimit="10" /><path d="M 1109 1109.16 L 1343.55 1109.16" fill="none" stroke="white" stroke-miterlimit="10" visibility="hidden" stroke-width="9" /><path d="M 1109 1109.16 L 1343.55 1109.16" fill="none" stroke="#718096" stroke-miterlimit="10" /></g><g><g /></g><g transform="translate(0.5,0.5)"><rect x="1109" y="1109.16" width="156.55" height="32.85" fill="#f8fafc" stroke="#cbd5e1" /></g><g><g /></g><g transform="translate(0.5,0.5)"><rect x="1265.55" y="1109.16" width="78" height="32.85" fill="#f8fafc" stroke="#cbd5e1" /></g><g><g /></g><g transform="translate(0.5,0.5)"><rect x="1109" y="1142.01" width="156.55" height="32.85" fill="#ffffff" stroke="#cbd5e1" /></g><g><g /></g><g transform="translate(0.5,0.5)"><rect x="1265.55" y="1142.01" width="78" height="32.85" fill="#ffffff" stroke="#cbd5e1" /></g><g><g /></g><g transform="translate(0.5,0.5)"><rect x="1109" y="1174.87" width="156.55" height="32.85" fill="#f8fafc" stroke="#cbd5e1" /></g><g><g /></g><g transform="translate(0.5,0.5)"><rect x="1265.55" y="1174.87" width="78" height="32.85" fill="#f8fafc" stroke="#cbd5e1" /></g><g><g /></g><g transform="translate(0.5,0.5)"><path d="M 1501.77 1071 L 1501.77 1039 L 1673.96 1039 L 1673.96 1071" fill="#e5ebf0" stroke="#718096" stroke-miterlimit="10" /><path d="M 1501.77 1071 L 1501.77 1104.28 L 1673.96 1104.28 L 1673.96 1071" fill="#ffffff" stroke="#718096" stroke-miterlimit="10" /><path d="M 1501.77 1071 L 1673.96 1071" fill="none" stroke="white" stroke-miterlimit="10" visibility="hidden" stroke-width="9" /><path d="M 1501.77 1071 L 1673.96 1071" fill="none" stroke="#718096" stroke-miterlimit="10" /></g><g><g /></g><g transform="translate(0.5,0.5)"><rect x="1501.77" y="1071" width="94.19" height="33.28" fill="#f8fafc" stroke="#cbd5e1" /></g><g><g /></g><g transform="translate(0.5,0.5)"><rect x="1595.96" y="1071" width="78" height="33.28" fill="#f8fafc" stroke="#cbd5e1" /></g><g><g /></g><g transform="translate(0.5,0.5)"><path d="M 1322.64 1016.84 L 1481.77 1016.84 L 1481.77 1087.64 L 1501.77 1087.64" fill="none" stroke="white" stroke-width="9.25" stroke-miterlimit="10" visibility="hidden" /><path d="M 1322.64 1016.84 L 1481.77 1016.84 L 1481.77 1087.64 L 1501.77 1087.64" fill="none" stroke="#526775" stroke-width="1.25" stroke-miterlimit="10" /><ellipse cx="1344.01" cy="1016.84" rx="6" ry="6" fill="#ffffff" stroke="#526775" stroke-width="1.25" /><path d="M 1329.76 1009.72 L 1329.76 1023.97" fill="none" stroke="white" stroke-width="9.25" stroke-miterlimit="10" visibility="hidden" /><path d="M 1329.76 1009.72 L 1329.76 1023.97" fill="none" stroke="#526775" stroke-width="1.25" stroke-miterlimit="10" /><path d="M 1494.64 1094.77 L 1494.64 1080.52" fill="none" stroke="white" stroke-width="9.25" stroke-miterlimit="10" visibility="hidden" /><path d="M 1494.64 1094.77 L 1494.64 1080.52" fill="none" stroke="#526775" stroke-width="1.25" stroke-miterlimit="10" /></g><g transform="translate(0.5,0.5)"><path d="M 1336.21 1332.12 L 1453.16 1332.12 L 1453.16 1203.59 L 1473.16 1203.59" fill="none" stroke="white" stroke-width="9.25" stroke-miterlimit="10" visibility="hidden" /><path d="M 1336.21 1332.12 L 1453.16 1332.12 L 1453.16 1203.59 L 1473.16 1203.59" fill="none" stroke="#526775" stroke-width="1.25" stroke-miterlimit="10" /><ellipse cx="1357.59" cy="1332.12" rx="6" ry="6" fill="#ffffff" stroke="#526775" stroke-width="1.25" /><path d="M 1336.21 1339.24 L 1350.46 1332.12 L 1336.21 1324.99" fill="none" stroke="white" stroke-width="9.25" stroke-miterlimit="10" visibility="hidden" /><path d="M 1336.21 1339.24 L 1350.46 1332.12 L 1336.21 1324.99" fill="none" stroke="#526775" stroke-width="1.25" stroke-miterlimit="10" /><path d="M 1466.04 1210.71 L 1466.03 1196.46" fill="none" stroke="white" stroke-width="9.25" stroke-miterlimit="10" visibility="hidden" /><path d="M 1466.04 1210.71 L 1466.03 1196.46" fill="none" stroke="#526775" stroke-width="1.25" stroke-miterlimit="10" /></g><g transform="translate(0.5,0.5)"><path d="M 1343.55 1191.29 L 1453.16 1191.3 L 1453.16 1087.64 L 1501.77 1087.64" fill="none" stroke="white" stroke-width="9.25" stroke-miterlimit="10" visibility="hidden" /><path d="M 1343.55 1191.29 L 1453.16 1191.3 L 1453.16 1087.64 L 1501.77 1087.64" fill="none" stroke="#526775" stroke-width="1.25" stroke-miterlimit="10" /><ellipse cx="1364.92" cy="1191.3" rx="6" ry="6" fill="#ffffff" stroke="#526775" stroke-width="1.25" /><path d="M 1343.55 1198.42 L 1357.8 1191.3 L 1343.55 1184.17" fill="none" stroke="white" stroke-width="9.25" stroke-miterlimit="10" visibility="hidden" /><path d="M 1343.55 1198.42 L 1357.8 1191.3 L 1343.55 1184.17" fill="none" stroke="#526775" stroke-width="1.25" stroke-miterlimit="10" /><ellipse cx="1480.39" cy="1087.64" rx="6" ry="6" fill="#ffffff" stroke="#526775" stroke-width="1.25" /><path d="M 1494.64 1094.77 L 1494.64 1080.52" fill="none" stroke="white" stroke-width="9.25" stroke-miterlimit="10" visibility="hidden" /><path d="M 1494.64 1094.77 L 1494.64 1080.52" fill="none" stroke="#526775" stroke-width="1.25" stroke-miterlimit="10" /></g><g transform="translate(0.5,0.5)"><path d="M 1343.55 1158.43 L 1363.55 1158.44 L 1363.55 1203.59 L 1473.16 1203.59" fill="none" stroke="white" stroke-width="9.25" stroke-miterlimit="10" visibility="hidden" /><path d="M 1343.55 1158.43 L 1363.55 1158.44 L 1363.55 1203.59 L 1473.16 1203.59" fill="none" stroke="#526775" stroke-width="1.25" stroke-miterlimit="10" /><ellipse cx="1364.92" cy="1158.44" rx="6" ry="6" fill="#ffffff" stroke="#526775" stroke-width="1.25" /><path d="M 1343.55 1165.56 L 1357.8 1158.44 L 1343.55 1151.31" fill="none" stroke="white" stroke-width="9.25" stroke-miterlimit="10" visibility="hidden" /><path d="M 1343.55 1165.56 L 1357.8 1158.44 L 1343.55 1151.31" fill="none" stroke="#526775" stroke-width="1.25" stroke-miterlimit="10" /><path d="M 1466.04 1210.71 L 1466.03 1196.46" fill="none" stroke="white" stroke-width="9.25" stroke-miterlimit="10" visibility="hidden" /><path d="M 1466.04 1210.71 L 1466.03 1196.46" fill="none" stroke="#526775" stroke-width="1.25" stroke-miterlimit="10" /></g><g transform="translate(0.5,0.5)"><path d="M 1702.57 1269.29 L 1812.16 1269.3 L 1812.16 1182.44 L 1832.16 1182.44" fill="none" stroke="white" stroke-width="9.25" stroke-miterlimit="10" visibility="hidden" /><path d="M 1702.57 1269.29 L 1812.16 1269.3 L 1812.16 1182.44 L 1832.16 1182.44" fill="none" stroke="#526775" stroke-width="1.25" stroke-miterlimit="10" /><ellipse cx="1723.94" cy="1269.3" rx="6" ry="6" fill="#ffffff" stroke="#526775" stroke-width="1.25" /><path d="M 1702.57 1276.42 L 1716.82 1269.3 L 1702.57 1262.17" fill="none" stroke="white" stroke-width="9.25" stroke-miterlimit="10" visibility="hidden" /><path d="M 1702.57 1276.42 L 1716.82 1269.3 L 1702.57 1262.17" fill="none" stroke="#526775" stroke-width="1.25" stroke-miterlimit="10" /><path d="M 1825.03 1189.57 L 1825.03 1175.32" fill="none" stroke="white" stroke-width="9.25" stroke-miterlimit="10" visibility="hidden" /><path d="M 1825.03 1189.57 L 1825.03 1175.32" fill="none" stroke="#526775" stroke-width="1.25" stroke-miterlimit="10" /></g><g transform="translate(0.5,0.5)"><path d="M 1702.57 1236.43 L 1812.16 1236.44 L 1812.16 1290.44 L 1832.16 1290.44" fill="none" stroke="white" stroke-width="9.25" stroke-miterlimit="10" visibility="hidden" /><path d="M 1702.57 1236.43 L 1812.16 1236.44 L 1812.16 1290.44 L 1832.16 1290.44" fill="none" stroke="#526775" stroke-width="1.25" stroke-miterlimit="10" /><ellipse cx="1723.94" cy="1236.44" rx="6" ry="6" fill="#ffffff" stroke="#526775" stroke-width="1.25" /><path d="M 1702.57 1243.56 L 1716.82 1236.44 L 1702.57 1229.31" fill="none" stroke="white" stroke-width="9.25" stroke-miterlimit="10" visibility="hidden" /><path d="M 1702.57 1243.56 L 1716.82 1236.44 L 1702.57 1229.31" fill="none" stroke="#526775" stroke-width="1.25" stroke-miterlimit="10" /><path d="M 1825.03 1297.57 L 1825.03 1283.32" fill="none" stroke="white" stroke-width="9.25" stroke-miterlimit="10" visibility="hidden" /><path d="M 1825.03 1297.57 L 1825.03 1283.32" fill="none" stroke="#526775" stroke-width="1.25" stroke-miterlimit="10" /></g><g transform="translate(0.5,0.5)"><rect x="1109" y="1351.6" width="895.34" height="20" fill="none" stroke="white" visibility="hidden" stroke-width="9" /><rect x="1109" y="1351.6" width="895.34" height="20" fill="none" stroke="none" /></g><g><g /></g></g><g /><g /></g><text x="1111" y="848.5078125" fill="rgb(23, 62, 91)" dominant-baseline="central" font-size="21.9921875" font-family="Arial, Liberation Sans, sans-serif" font-weight="700">Fleet and identity</text><text x="1203.015625" y="984.5" fill="rgb(255, 255, 255)" dominant-baseline="central" font-size="12.994791666666668" font-family="Arial, Liberation Sans, sans-serif" font-weight="700">profiles</text><text x="1138" y="1017.5078125" fill="rgb(23, 43, 58)" dominant-baseline="central" font-size="11.9921875" font-family="Arial, Liberation Sans, sans-serif" font-weight="700">PK FK id</text><text x="1253" y="1017.5078125" fill="rgb(23, 43, 58)" dominant-baseline="central" font-size="11.9921875" font-family="Arial, Liberation Sans, sans-serif" font-weight="400">uuid</text><text x="1889.59375" y="1150.5" fill="rgb(255, 255, 255)" dominant-baseline="central" font-size="12.994791666666668" font-family="Arial, Liberation Sans, sans-serif" font-weight="700">branches</text><text x="1840" y="1182.5078125" fill="rgb(23, 43, 58)" dominant-baseline="central" font-size="11.9921875" font-family="Arial, Liberation Sans, sans-serif" font-weight="700">PK id</text><text x="1934" y="1182.5078125" fill="rgb(23, 43, 58)" dominant-baseline="central" font-size="11.9921875" font-family="Arial, Liberation Sans, sans-serif" font-weight="400">uuid</text><text x="1860.328125" y="1258.5" fill="rgb(255, 255, 255)" dominant-baseline="central" font-size="12.994791666666668" font-family="Arial, Liberation Sans, sans-serif" font-weight="700">vehicle_categories</text><text x="1840" y="1290.5078125" fill="rgb(23, 43, 58)" dominant-baseline="central" font-size="11.9921875" font-family="Arial, Liberation Sans, sans-serif" font-weight="700">PK id</text><text x="1934" y="1290.5078125" fill="rgb(23, 43, 58)" dominant-baseline="central" font-size="11.9921875" font-family="Arial, Liberation Sans, sans-serif" font-weight="400">uuid</text><text x="1562.84375" y="1171.5" fill="rgb(255, 255, 255)" dominant-baseline="central" font-size="12.994791666666668" font-family="Arial, Liberation Sans, sans-serif" font-weight="700">vehicles</text><text x="1481" y="1204.5078125" fill="rgb(23, 43, 58)" dominant-baseline="central" font-size="11.9921875" font-family="Arial, Liberation Sans, sans-serif" font-weight="700">PK id</text><text x="1633" y="1204.5078125" fill="rgb(23, 43, 58)" dominant-baseline="central" font-size="11.9921875" font-family="Arial, Liberation Sans, sans-serif" font-weight="400">uuid</text><text x="1481" y="1236.5078125" fill="rgb(23, 43, 58)" dominant-baseline="central" font-size="11.9921875" font-family="Arial, Liberation Sans, sans-serif" font-weight="400">FK category_id</text><text x="1633" y="1236.5078125" fill="rgb(23, 43, 58)" dominant-baseline="central" font-size="11.9921875" font-family="Arial, Liberation Sans, sans-serif" font-weight="400">uuid</text><text x="1481" y="1269.5078125" fill="rgb(23, 43, 58)" dominant-baseline="central" font-size="11.9921875" font-family="Arial, Liberation Sans, sans-serif" font-weight="400">FK branch_id</text><text x="1633" y="1269.5078125" fill="rgb(23, 43, 58)" dominant-baseline="central" font-size="11.9921875" font-family="Arial, Liberation Sans, sans-serif" font-weight="400">uuid</text><text x="1178.4375" y="1267.5" fill="rgb(255, 255, 255)" dominant-baseline="central" font-size="12.994791666666668" font-family="Arial, Liberation Sans, sans-serif" font-weight="700">vehicle_images</text><text x="1124" y="1299.5078125" fill="rgb(23, 43, 58)" dominant-baseline="central" font-size="11.9921875" font-family="Arial, Liberation Sans, sans-serif" font-weight="700">PK id</text><text x="1266" y="1299.5078125" fill="rgb(23, 43, 58)" dominant-baseline="central" font-size="11.9921875" font-family="Arial, Liberation Sans, sans-serif" font-weight="400">uuid</text><text x="1124" y="1332.5078125" fill="rgb(23, 43, 58)" dominant-baseline="central" font-size="11.9921875" font-family="Arial, Liberation Sans, sans-serif" font-weight="400">FK vehicle_id</text><text x="1266" y="1332.5078125" fill="rgb(23, 43, 58)" dominant-baseline="central" font-size="11.9921875" font-family="Arial, Liberation Sans, sans-serif" font-weight="400">uuid</text><text x="1122.8125" y="1093.5" fill="rgb(255, 255, 255)" dominant-baseline="central" font-size="12.994791666666668" font-family="Arial, Liberation Sans, sans-serif" font-weight="700">vehicle_operational_state_events</text><text x="1117" y="1126.5078125" fill="rgb(23, 43, 58)" dominant-baseline="central" font-size="11.9921875" font-family="Arial, Liberation Sans, sans-serif" font-weight="700">PK id</text><text x="1274" y="1126.5078125" fill="rgb(23, 43, 58)" dominant-baseline="central" font-size="11.9921875" font-family="Arial, Liberation Sans, sans-serif" font-weight="400">uuid</text><text x="1117" y="1158.5078125" fill="rgb(23, 43, 58)" dominant-baseline="central" font-size="11.9921875" font-family="Arial, Liberation Sans, sans-serif" font-weight="400">FK vehicle_id</text><text x="1274" y="1158.5078125" fill="rgb(23, 43, 58)" dominant-baseline="central" font-size="11.9921875" font-family="Arial, Liberation Sans, sans-serif" font-weight="400">uuid</text><text x="1117" y="1191.5078125" fill="rgb(23, 43, 58)" dominant-baseline="central" font-size="11.9921875" font-family="Arial, Liberation Sans, sans-serif" font-weight="400">FK recorded_by</text><text x="1274" y="1191.5078125" fill="rgb(23, 43, 58)" dominant-baseline="central" font-size="11.9921875" font-family="Arial, Liberation Sans, sans-serif" font-weight="400">uuid ?</text><text x="1541.1875" y="1055.5" fill="rgb(51, 65, 85)" dominant-baseline="central" font-size="12.994791666666668" font-family="Arial, Liberation Sans, sans-serif" font-weight="700">auth.users (ref)</text><text x="1510" y="1088.5078125" fill="rgb(23, 43, 58)" dominant-baseline="central" font-size="11.9921875" font-family="Arial, Liberation Sans, sans-serif" font-weight="700">PK id</text><text x="1604" y="1088.5078125" fill="rgb(23, 43, 58)" dominant-baseline="central" font-size="11.9921875" font-family="Arial, Liberation Sans, sans-serif" font-weight="400">uuid</text></svg>