<svg xmlns="http://www.w3.org/2000/svg" viewBox="1089.5 811.5 969.8599853515625 652.1199951171875" width="969.8599853515625" height="652.1199951171875" style="background:white"><g><g /><g><g transform="translate(0.5,0.5)"><rect x="1109" y="831" width="929.86" height="34" fill="none" stroke="white" visibility="hidden" stroke-width="9" /><rect x="1109" y="831" width="929.86" height="34" fill="none" stroke="none" /></g><g><g /></g><g transform="translate(0.5,0.5)"><rect x="1109" y="866" width="929.86" height="25" fill="none" stroke="white" visibility="hidden" stroke-width="9" /><rect x="1109" y="866" width="929.86" height="25" fill="none" stroke="none" /></g><g><g /></g><g transform="translate(0.5,0.5)"><path d="M 1488.22 1283.4 L 1488.22 1251.4 L 1714.7 1251.4 L 1714.7 1283.4" fill="#173e5b" stroke="#718096" stroke-miterlimit="10" /><path d="M 1488.22 1283.4 L 1488.22 1349.32 L 1714.7 1349.32 L 1714.7 1283.4" fill="#ffffff" stroke="#718096" stroke-miterlimit="10" /><path d="M 1488.22 1283.4 L 1714.7 1283.4" fill="none" stroke="white" stroke-miterlimit="10" visibility="hidden" stroke-width="9" /><path d="M 1488.22 1283.4 L 1714.7 1283.4" fill="none" stroke="#718096" stroke-miterlimit="10" /></g><g><g /></g><g transform="translate(0.5,0.5)"><rect x="1488.22" y="1283.4" width="148.48" height="32.96" fill="#f8fafc" stroke="#cbd5e1" /></g><g><g /></g><g transform="translate(0.5,0.5)"><rect x="1636.7" y="1283.4" width="78" height="32.96" fill="#f8fafc" stroke="#cbd5e1" /></g><g><g /></g><g transform="translate(0.5,0.5)"><rect x="1488.22" y="1316.36" width="148.48" height="32.96" fill="#ffffff" stroke="#cbd5e1" /></g><g><g /></g><g transform="translate(0.5,0.5)"><rect x="1636.7" y="1316.36" width="78" height="32.96" fill="#ffffff" stroke="#cbd5e1" /></g><g><g /></g><g transform="translate(0.5,0.5)"><path d="M 1109 1212.6 L 1109 1180.6 L 1356.77 1180.6 L 1356.77 1212.6" fill="#173e5b" stroke="#718096" stroke-miterlimit="10" /><path d="M 1109 1212.6 L 1109 1278.52 L 1356.77 1278.52 L 1356.77 1212.6" fill="#ffffff" stroke="#718096" stroke-miterlimit="10" /><path d="M 1109 1212.6 L 1356.77 1212.6" fill="none" stroke="white" stroke-miterlimit="10" visibility="hidden" stroke-width="9" /><path d="M 1109 1212.6 L 1356.77 1212.6" fill="none" stroke="#718096" stroke-miterlimit="10" /></g><g><g /></g><g transform="translate(0.5,0.5)"><rect x="1109" y="1212.6" width="169.77" height="32.96" fill="#f8fafc" stroke="#cbd5e1" /></g><g><g /></g><g transform="translate(0.5,0.5)"><rect x="1278.77" y="1212.6" width="78" height="32.96" fill="#f8fafc" stroke="#cbd5e1" /></g><g><g /></g><g transform="translate(0.5,0.5)"><rect x="1109" y="1245.56" width="169.77" height="32.96" fill="#ffffff" stroke="#cbd5e1" /></g><g><g /></g><g transform="translate(0.5,0.5)"><rect x="1278.77" y="1245.56" width="78" height="32.96" fill="#ffffff" stroke="#cbd5e1" /></g><g><g /></g><g transform="translate(0.5,0.5)"><path d="M 1109 1354.2 L 1109 1322.2 L 1356.77 1322.2 L 1356.77 1354.2" fill="#173e5b" stroke="#718096" stroke-miterlimit="10" /><path d="M 1109 1354.2 L 1109 1420.12 L 1356.77 1420.12 L 1356.77 1354.2" fill="#ffffff" stroke="#718096" stroke-miterlimit="10" /><path d="M 1109 1354.2 L 1356.77 1354.2" fill="none" stroke="white" stroke-miterlimit="10" visibility="hidden" stroke-width="9" /><path d="M 1109 1354.2 L 1356.77 1354.2" fill="none" stroke="#718096" stroke-miterlimit="10" /></g><g><g /></g><g transform="translate(0.5,0.5)"><rect x="1109" y="1354.2" width="169.77" height="32.96" fill="#f8fafc" stroke="#cbd5e1" /></g><g><g /></g><g transform="translate(0.5,0.5)"><rect x="1278.77" y="1354.2" width="78" height="32.96" fill="#f8fafc" stroke="#cbd5e1" /></g><g><g /></g><g transform="translate(0.5,0.5)"><rect x="1109" y="1387.16" width="169.77" height="32.96" fill="#ffffff" stroke="#cbd5e1" /></g><g><g /></g><g transform="translate(0.5,0.5)"><rect x="1278.77" y="1387.16" width="78" height="32.96" fill="#ffffff" stroke="#cbd5e1" /></g><g><g /></g><g transform="translate(0.5,0.5)"><path d="M 1486.37 1000.2 L 1486.37 968.2 L 1716.54 968.2 L 1716.54 1000.2" fill="#173e5b" stroke="#718096" stroke-miterlimit="10" /><path d="M 1486.37 1000.2 L 1486.37 1066.12 L 1716.54 1066.12 L 1716.54 1000.2" fill="#ffffff" stroke="#718096" stroke-miterlimit="10" /><path d="M 1486.37 1000.2 L 1716.54 1000.2" fill="none" stroke="white" stroke-miterlimit="10" visibility="hidden" stroke-width="9" /><path d="M 1486.37 1000.2 L 1716.54 1000.2" fill="none" stroke="#718096" stroke-miterlimit="10" /></g><g><g /></g><g transform="translate(0.5,0.5)"><rect x="1486.37" y="1000.2" width="152.17" height="32.96" fill="#f8fafc" stroke="#cbd5e1" /></g><g><g /></g><g transform="translate(0.5,0.5)"><rect x="1638.54" y="1000.2" width="78" height="32.96" fill="#f8fafc" stroke="#cbd5e1" /></g><g><g /></g><g transform="translate(0.5,0.5)"><rect x="1486.37" y="1033.16" width="152.17" height="32.96" fill="#ffffff" stroke="#cbd5e1" /></g><g><g /></g><g transform="translate(0.5,0.5)"><rect x="1638.54" y="1033.16" width="78" height="32.96" fill="#ffffff" stroke="#cbd5e1" /></g><g><g /></g><g transform="translate(0.5,0.5)"><path d="M 1145.27 1104.12 L 1145.27 1072.12 L 1320.51 1072.12 L 1320.51 1104.12" fill="#173e5b" stroke="#718096" stroke-miterlimit="10" /><path d="M 1145.27 1104.12 L 1145.27 1137.4 L 1320.51 1137.4 L 1320.51 1104.12" fill="#ffffff" stroke="#718096" stroke-miterlimit="10" /><path d="M 1145.27 1104.12 L 1320.51 1104.12" fill="none" stroke="white" stroke-miterlimit="10" visibility="hidden" stroke-width="9" /><path d="M 1145.27 1104.12 L 1320.51 1104.12" fill="none" stroke="#718096" stroke-miterlimit="10" /></g><g><g /></g><g transform="translate(0.5,0.5)"><rect x="1145.27" y="1104.12" width="97.24" height="33.28" fill="#f8fafc" stroke="#cbd5e1" /></g><g><g /></g><g transform="translate(0.5,0.5)"><rect x="1242.51" y="1104.12" width="78" height="33.28" fill="#f8fafc" stroke="#cbd5e1" /></g><g><g /></g><g transform="translate(0.5,0.5)"><path d="M 1497.02 1141.8 L 1497.02 1109.8 L 1705.89 1109.8 L 1705.89 1141.8" fill="#173e5b" stroke="#718096" stroke-miterlimit="10" /><path d="M 1497.02 1141.8 L 1497.02 1207.72 L 1705.89 1207.72 L 1705.89 1141.8" fill="#ffffff" stroke="#718096" stroke-miterlimit="10" /><path d="M 1497.02 1141.8 L 1705.89 1141.8" fill="none" stroke="white" stroke-miterlimit="10" visibility="hidden" stroke-width="9" /><path d="M 1497.02 1141.8 L 1705.89 1141.8" fill="none" stroke="#718096" stroke-miterlimit="10" /></g><g><g /></g><g transform="translate(0.5,0.5)"><rect x="1497.02" y="1141.8" width="130.87" height="32.96" fill="#f8fafc" stroke="#cbd5e1" /></g><g><g /></g><g transform="translate(0.5,0.5)"><rect x="1627.89" y="1141.8" width="78" height="32.96" fill="#f8fafc" stroke="#cbd5e1" /></g><g><g /></g><g transform="translate(0.5,0.5)"><rect x="1497.02" y="1174.76" width="130.87" height="32.96" fill="#ffffff" stroke="#cbd5e1" /></g><g><g /></g><g transform="translate(0.5,0.5)"><rect x="1627.89" y="1174.76" width="78" height="32.96" fill="#ffffff" stroke="#cbd5e1" /></g><g><g /></g><g transform="translate(0.5,0.5)"><path d="M 1846.14 1158.12 L 1846.14 1126.12 L 2038.86 1126.12 L 2038.86 1158.12" fill="#e5ebf0" stroke="#718096" stroke-miterlimit="10" /><path d="M 1846.14 1158.12 L 1846.14 1191.4 L 2038.86 1191.4 L 2038.86 1158.12" fill="#ffffff" stroke="#718096" stroke-miterlimit="10" /><path d="M 1846.14 1158.12 L 2038.86 1158.12" fill="none" stroke="white" stroke-miterlimit="10" visibility="hidden" stroke-width="9" /><path d="M 1846.14 1158.12 L 2038.86 1158.12" fill="none" stroke="#718096" stroke-miterlimit="10" /></g><g><g /></g><g transform="translate(0.5,0.5)"><rect x="1846.14" y="1158.12" width="114.72" height="33.28" fill="#f8fafc" stroke="#cbd5e1" /></g><g><g /></g><g transform="translate(0.5,0.5)"><rect x="1960.86" y="1158.12" width="78" height="33.28" fill="#f8fafc" stroke="#cbd5e1" /></g><g><g /></g><g transform="translate(0.5,0.5)"><path d="M 1356.77 1262.04 L 1468.22 1262.04 L 1468.22 1299.88 L 1488.22 1299.88" fill="none" stroke="white" stroke-width="9.25" stroke-miterlimit="10" visibility="hidden" /><path d="M 1356.77 1262.04 L 1468.22 1262.04 L 1468.22 1299.88 L 1488.22 1299.88" fill="none" stroke="#526775" stroke-width="1.25" stroke-miterlimit="10" /><ellipse cx="1378.14" cy="1262.04" rx="6" ry="6" fill="#ffffff" stroke="#526775" stroke-width="1.25" /><path d="M 1356.77 1269.16 L 1371.02 1262.04 L 1356.77 1254.91" fill="none" stroke="white" stroke-width="9.25" stroke-miterlimit="10" visibility="hidden" /><path d="M 1356.77 1269.16 L 1371.02 1262.04 L 1356.77 1254.91" fill="none" stroke="#526775" stroke-width="1.25" stroke-miterlimit="10" /><path d="M 1481.1 1307.01 L 1481.1 1292.76" fill="none" stroke="white" stroke-width="9.25" stroke-miterlimit="10" visibility="hidden" /><path d="M 1481.1 1307.01 L 1481.1 1292.76" fill="none" stroke="#526775" stroke-width="1.25" stroke-miterlimit="10" /></g><g transform="translate(0.5,0.5)"><path d="M 1714.7 1332.84 L 1826.14 1332.84 L 1826.14 1174.76 L 1846.14 1174.76" fill="none" stroke="white" stroke-width="9.25" stroke-miterlimit="10" visibility="hidden" /><path d="M 1714.7 1332.84 L 1826.14 1332.84 L 1826.14 1174.76 L 1846.14 1174.76" fill="none" stroke="#526775" stroke-width="1.25" stroke-miterlimit="10" /><ellipse cx="1736.08" cy="1332.84" rx="6" ry="6" fill="#ffffff" stroke="#526775" stroke-width="1.25" /><path d="M 1714.7 1339.96 L 1728.95 1332.84 L 1714.7 1325.71" fill="none" stroke="white" stroke-width="9.25" stroke-miterlimit="10" visibility="hidden" /><path d="M 1714.7 1339.96 L 1728.95 1332.84 L 1714.7 1325.71" fill="none" stroke="#526775" stroke-width="1.25" stroke-miterlimit="10" /><ellipse cx="1824.76" cy="1174.76" rx="6" ry="6" fill="#ffffff" stroke="#526775" stroke-width="1.25" /><path d="M 1839.01 1181.88 L 1839.01 1167.63" fill="none" stroke="white" stroke-width="9.25" stroke-miterlimit="10" visibility="hidden" /><path d="M 1839.01 1181.88 L 1839.01 1167.63" fill="none" stroke="#526775" stroke-width="1.25" stroke-miterlimit="10" /></g><g transform="translate(0.5,0.5)"><path d="M 1705.89 1191.24 L 1826.14 1191.24 L 1826.14 1174.76 L 1846.14 1174.76" fill="none" stroke="white" stroke-width="9.25" stroke-miterlimit="10" visibility="hidden" /><path d="M 1705.89 1191.24 L 1826.14 1191.24 L 1826.14 1174.76 L 1846.14 1174.76" fill="none" stroke="#526775" stroke-width="1.25" stroke-miterlimit="10" /><ellipse cx="1727.26" cy="1191.24" rx="6" ry="6" fill="#ffffff" stroke="#526775" stroke-width="1.25" /><path d="M 1705.89 1198.37 L 1720.14 1191.24 L 1705.89 1184.12" fill="none" stroke="white" stroke-width="9.25" stroke-miterlimit="10" visibility="hidden" /><path d="M 1705.89 1198.37 L 1720.14 1191.24 L 1705.89 1184.12" fill="none" stroke="#526775" stroke-width="1.25" stroke-miterlimit="10" /><ellipse cx="1824.76" cy="1174.76" rx="6" ry="6" fill="#ffffff" stroke="#526775" stroke-width="1.25" /><path d="M 1839.01 1181.88 L 1839.01 1167.63" fill="none" stroke="white" stroke-width="9.25" stroke-miterlimit="10" visibility="hidden" /><path d="M 1839.01 1181.88 L 1839.01 1167.63" fill="none" stroke="#526775" stroke-width="1.25" stroke-miterlimit="10" /></g><g transform="translate(0.5,0.5)"><path d="M 1716.54 1049.64 L 1826.14 1049.64 L 1826.14 1174.76 L 1846.14 1174.76" fill="none" stroke="white" stroke-width="9.25" stroke-miterlimit="10" visibility="hidden" /><path d="M 1716.54 1049.64 L 1826.14 1049.64 L 1826.14 1174.76 L 1846.14 1174.76" fill="none" stroke="#526775" stroke-width="1.25" stroke-miterlimit="10" /><ellipse cx="1737.91" cy="1049.64" rx="6" ry="6" fill="#ffffff" stroke="#526775" stroke-width="1.25" /><path d="M 1716.54 1056.76 L 1730.79 1049.64 L 1716.54 1042.51" fill="none" stroke="white" stroke-width="9.25" stroke-miterlimit="10" visibility="hidden" /><path d="M 1716.54 1056.76 L 1730.79 1049.64 L 1716.54 1042.51" fill="none" stroke="#526775" stroke-width="1.25" stroke-miterlimit="10" /><ellipse cx="1824.76" cy="1174.76" rx="6" ry="6" fill="#ffffff" stroke="#526775" stroke-width="1.25" /><path d="M 1839.01 1181.88 L 1839.01 1167.63" fill="none" stroke="white" stroke-width="9.25" stroke-miterlimit="10" visibility="hidden" /><path d="M 1839.01 1181.88 L 1839.01 1167.63" fill="none" stroke="#526775" stroke-width="1.25" stroke-miterlimit="10" /></g><g transform="translate(0.5,0.5)"><path d="M 1356.77 1403.64 L 1468.22 1403.64 L 1468.22 1299.88 L 1488.22 1299.88" fill="none" stroke="white" stroke-width="9.25" stroke-miterlimit="10" visibility="hidden" /><path d="M 1356.77 1403.64 L 1468.22 1403.64 L 1468.22 1299.88 L 1488.22 1299.88" fill="none" stroke="#526775" stroke-width="1.25" stroke-miterlimit="10" /><ellipse cx="1378.14" cy="1403.64" rx="6" ry="6" fill="#ffffff" stroke="#526775" stroke-width="1.25" /><path d="M 1356.77 1410.76 L 1371.02 1403.64 L 1356.77 1396.51" fill="none" stroke="white" stroke-width="9.25" stroke-miterlimit="10" visibility="hidden" /><path d="M 1356.77 1410.76 L 1371.02 1403.64 L 1356.77 1396.51" fill="none" stroke="#526775" stroke-width="1.25" stroke-miterlimit="10" /><path d="M 1481.1 1307.01 L 1481.1 1292.76" fill="none" stroke="white" stroke-width="9.25" stroke-miterlimit="10" visibility="hidden" /><path d="M 1481.1 1307.01 L 1481.1 1292.76" fill="none" stroke="#526775" stroke-width="1.25" stroke-miterlimit="10" /></g><g transform="translate(0.5,0.5)"><rect x="1109" y="1423.12" width="929.86" height="20" fill="none" stroke="white" visibility="hidden" stroke-width="9" /><rect x="1109" y="1423.12" width="929.86" height="20" fill="none" stroke="none" /></g><g><g /></g></g><g /><g /></g><text x="1111" y="848.5078125" fill="rgb(23, 62, 91)" dominant-baseline="central" font-size="21.9921875" font-family="Arial, Liberation Sans, sans-serif" font-weight="700">Recovery and public contact</text><text x="1561.046875" y="1267.5" fill="rgb(255, 255, 255)" dominant-baseline="central" font-size="12.994791666666668" font-family="Arial, Liberation Sans, sans-serif" font-weight="700">backup_runs</text><text x="1496" y="1300.5078125" fill="rgb(23, 43, 58)" dominant-baseline="central" font-size="11.9921875" font-family="Arial, Liberation Sans, sans-serif" font-weight="700">PK id</text><text x="1645" y="1300.5078125" fill="rgb(23, 43, 58)" dominant-baseline="central" font-size="11.9921875" font-family="Arial, Liberation Sans, sans-serif" font-weight="400">uuid</text><text x="1496" y="1333.5078125" fill="rgb(23, 43, 58)" dominant-baseline="central" font-size="11.9921875" font-family="Arial, Liberation Sans, sans-serif" font-weight="400">FK created_by</text><text x="1645" y="1333.5078125" fill="rgb(23, 43, 58)" dominant-baseline="central" font-size="11.9921875" font-family="Arial, Liberation Sans, sans-serif" font-weight="400">uuid ?</text><text x="1181.84375" y="1197.5" fill="rgb(255, 255, 255)" dominant-baseline="central" font-size="12.994791666666668" font-family="Arial, Liberation Sans, sans-serif" font-weight="700">backup_artifacts</text><text x="1117" y="1229.5078125" fill="rgb(23, 43, 58)" dominant-baseline="central" font-size="11.9921875" font-family="Arial, Liberation Sans, sans-serif" font-weight="700">PK id</text><text x="1287" y="1229.5078125" fill="rgb(23, 43, 58)" dominant-baseline="central" font-size="11.9921875" font-family="Arial, Liberation Sans, sans-serif" font-weight="400">uuid</text><text x="1117" y="1262.5078125" fill="rgb(23, 43, 58)" dominant-baseline="central" font-size="11.9921875" font-family="Arial, Liberation Sans, sans-serif" font-weight="400">FK backup_run_id</text><text x="1287" y="1262.5078125" fill="rgb(23, 43, 58)" dominant-baseline="central" font-size="11.9921875" font-family="Arial, Liberation Sans, sans-serif" font-weight="400">uuid</text><text x="1187.25" y="1338.5" fill="rgb(255, 255, 255)" dominant-baseline="central" font-size="12.994791666666668" font-family="Arial, Liberation Sans, sans-serif" font-weight="700">recovery_drills</text><text x="1117" y="1371.5078125" fill="rgb(23, 43, 58)" dominant-baseline="central" font-size="11.9921875" font-family="Arial, Liberation Sans, sans-serif" font-weight="700">PK id</text><text x="1287" y="1371.5078125" fill="rgb(23, 43, 58)" dominant-baseline="central" font-size="11.9921875" font-family="Arial, Liberation Sans, sans-serif" font-weight="400">uuid</text><text x="1117" y="1404.5078125" fill="rgb(23, 43, 58)" dominant-baseline="central" font-size="11.9921875" font-family="Arial, Liberation Sans, sans-serif" font-weight="400">FK backup_run_id</text><text x="1287" y="1404.5078125" fill="rgb(23, 43, 58)" dominant-baseline="central" font-size="11.9921875" font-family="Arial, Liberation Sans, sans-serif" font-weight="400">uuid</text><text x="1527.09375" y="984.5" fill="rgb(255, 255, 255)" dominant-baseline="central" font-size="12.994791666666668" font-family="Arial, Liberation Sans, sans-serif" font-weight="700">public_contact_settings</text><text x="1494" y="1017.5078125" fill="rgb(23, 43, 58)" dominant-baseline="central" font-size="11.9921875" font-family="Arial, Liberation Sans, sans-serif" font-weight="700">PK id</text><text x="1647" y="1017.5078125" fill="rgb(23, 43, 58)" dominant-baseline="central" font-size="11.9921875" font-family="Arial, Liberation Sans, sans-serif" font-weight="400">boolean</text><text x="1494" y="1050.5078125" fill="rgb(23, 43, 58)" dominant-baseline="central" font-size="11.9921875" font-family="Arial, Liberation Sans, sans-serif" font-weight="400">FK updated_by</text><text x="1647" y="1050.5078125" fill="rgb(23, 43, 58)" dominant-baseline="central" font-size="11.9921875" font-family="Arial, Liberation Sans, sans-serif" font-weight="400">uuid ?</text><text x="1155.484375" y="1088.5" fill="rgb(255, 255, 255)" dominant-baseline="central" font-size="12.994791666666668" font-family="Arial, Liberation Sans, sans-serif" font-weight="700">public_contact_locations</text><text x="1153" y="1121.5078125" fill="rgb(23, 43, 58)" dominant-baseline="central" font-size="11.9921875" font-family="Arial, Liberation Sans, sans-serif" font-weight="700">PK id</text><text x="1251" y="1121.5078125" fill="rgb(23, 43, 58)" dominant-baseline="central" font-size="11.9921875" font-family="Arial, Liberation Sans, sans-serif" font-weight="400">uuid</text><text x="1547.6875" y="1126.5" fill="rgb(255, 255, 255)" dominant-baseline="central" font-size="12.994791666666668" font-family="Arial, Liberation Sans, sans-serif" font-weight="700">contact_inquiries</text><text x="1505" y="1158.5078125" fill="rgb(23, 43, 58)" dominant-baseline="central" font-size="11.9921875" font-family="Arial, Liberation Sans, sans-serif" font-weight="700">PK id</text><text x="1636" y="1158.5078125" fill="rgb(23, 43, 58)" dominant-baseline="central" font-size="11.9921875" font-family="Arial, Liberation Sans, sans-serif" font-weight="400">uuid</text><text x="1505" y="1191.5078125" fill="rgb(23, 43, 58)" dominant-baseline="central" font-size="11.9921875" font-family="Arial, Liberation Sans, sans-serif" font-weight="400">FK read_by</text><text x="1636" y="1191.5078125" fill="rgb(23, 43, 58)" dominant-baseline="central" font-size="11.9921875" font-family="Arial, Liberation Sans, sans-serif" font-weight="400">uuid ?</text><text x="1904.578125" y="1142.5" fill="rgb(51, 65, 85)" dominant-baseline="central" font-size="12.994791666666668" font-family="Arial, Liberation Sans, sans-serif" font-weight="700">profiles (ref)</text><text x="1854" y="1175.5078125" fill="rgb(23, 43, 58)" dominant-baseline="central" font-size="11.9921875" font-family="Arial, Liberation Sans, sans-serif" font-weight="700">PK FK id</text><text x="1969" y="1175.5078125" fill="rgb(23, 43, 58)" dominant-baseline="central" font-size="11.9921875" font-family="Arial, Liberation Sans, sans-serif" font-weight="400">uuid</text></svg>