<svg xmlns="http://www.w3.org/2000/svg" viewBox="1089.5 811.5 840.0 431.0" width="840.0" height="431.0" style="background:white"><g><g /><g><g transform="translate(0.5,0.5)"><rect x="1109" y="831" width="800" height="34" fill="none" stroke="white" visibility="hidden" stroke-width="9" /><rect x="1109" y="831" width="800" height="34" fill="none" stroke="none" /></g><g><g /></g><g transform="translate(0.5,0.5)"><rect x="1109" y="866" width="800" height="25" fill="none" stroke="white" visibility="hidden" stroke-width="9" /><rect x="1109" y="866" width="800" height="25" fill="none" stroke="none" /></g><g><g /></g><g transform="translate(0.5,0.5)"><path d="M 1109 958 L 1109 926 L 1445.51 926 L 1445.51 958" fill="#173e5b" stroke="#718096" stroke-miterlimit="10" /><path d="M 1109 958 L 1109 1054 L 1445.51 1054 L 1445.51 958" fill="#ffffff" stroke="#718096" stroke-miterlimit="10" /><path d="M 1109 958 L 1445.51 958" fill="none" stroke="white" stroke-miterlimit="10" visibility="hidden" stroke-width="9" /><path d="M 1109 958 L 1445.51 958" fill="none" stroke="#718096" stroke-miterlimit="10" /></g><g><g /></g><g transform="translate(0.5,0.5)"><rect x="1109" y="958" width="235.56" height="32" fill="#f8fafc" stroke="#cbd5e1" /></g><g><g /></g><g transform="translate(0.5,0.5)"><rect x="1344.56" y="958" width="100.95" height="32" fill="#f8fafc" stroke="#cbd5e1" /></g><g><g /></g><g transform="translate(0.5,0.5)"><rect x="1109" y="990" width="235.56" height="32" fill="#ffffff" stroke="#cbd5e1" /></g><g><g /></g><g transform="translate(0.5,0.5)"><rect x="1344.56" y="990" width="100.95" height="32" fill="#ffffff" stroke="#cbd5e1" /></g><g><g /></g><g transform="translate(0.5,0.5)"><rect x="1109" y="1022" width="235.56" height="32" fill="#f8fafc" stroke="#cbd5e1" /></g><g><g /></g><g transform="translate(0.5,0.5)"><rect x="1344.56" y="1022" width="100.95" height="32" fill="#f8fafc" stroke="#cbd5e1" /></g><g><g /></g><g transform="translate(0.5,0.5)"><path d="M 1639 958 L 1639 926 L 1837.71 926 L 1837.71 958" fill="#e5ebf0" stroke="#718096" stroke-miterlimit="10" /><path d="M 1639 958 L 1639 990 L 1837.71 990 L 1837.71 958" fill="#ffffff" stroke="#718096" stroke-miterlimit="10" /><path d="M 1639 958 L 1837.71 958" fill="none" stroke="white" stroke-miterlimit="10" visibility="hidden" stroke-width="9" /><path d="M 1639 958 L 1837.71 958" fill="none" stroke="#718096" stroke-miterlimit="10" /></g><g><g /></g><g transform="translate(0.5,0.5)"><rect x="1639" y="958" width="120.71" height="32" fill="#f8fafc" stroke="#cbd5e1" /></g><g><g /></g><g transform="translate(0.5,0.5)"><rect x="1759.71" y="958" width="78" height="32" fill="#f8fafc" stroke="#cbd5e1" /></g><g><g /></g><g transform="translate(0.5,0.5)"><path d="M 1639 1053 L 1639 1021 L 1842.16 1021 L 1842.16 1053" fill="#e5ebf0" stroke="#718096" stroke-miterlimit="10" /><path d="M 1639 1053 L 1639 1085 L 1842.16 1085 L 1842.16 1053" fill="#ffffff" stroke="#718096" stroke-miterlimit="10" /><path d="M 1639 1053 L 1842.16 1053" fill="none" stroke="white" stroke-miterlimit="10" visibility="hidden" stroke-width="9" /><path d="M 1639 1053 L 1842.16 1053" fill="none" stroke="#718096" stroke-miterlimit="10" /></g><g><g /></g><g transform="translate(0.5,0.5)"><rect x="1639" y="1053" width="125.16" height="32" fill="#f8fafc" stroke="#cbd5e1" /></g><g><g /></g><g transform="translate(0.5,0.5)"><rect x="1764.16" y="1053" width="78" height="32" fill="#f8fafc" stroke="#cbd5e1" /></g><g><g /></g><g transform="translate(0.5,0.5)"><path d="M 1639 1148 L 1639 1116 L 1811.19 1116 L 1811.19 1148" fill="#e5ebf0" stroke="#718096" stroke-miterlimit="10" /><path d="M 1639 1148 L 1639 1180 L 1811.19 1180 L 1811.19 1148" fill="#ffffff" stroke="#718096" stroke-miterlimit="10" /><path d="M 1639 1148 L 1811.19 1148" fill="none" stroke="white" stroke-miterlimit="10" visibility="hidden" stroke-width="9" /><path d="M 1639 1148 L 1811.19 1148" fill="none" stroke="#718096" stroke-miterlimit="10" /></g><g><g /></g><g transform="translate(0.5,0.5)"><rect x="1639" y="1148" width="94.19" height="32" fill="#f8fafc" stroke="#cbd5e1" /></g><g><g /></g><g transform="translate(0.5,0.5)"><rect x="1733.19" y="1148" width="78" height="32" fill="#f8fafc" stroke="#cbd5e1" /></g><g><g /></g><g transform="translate(0.5,0.5)"><path d="M 1445.51 974 L 1639 974" fill="none" stroke="white" stroke-width="9.25" stroke-miterlimit="10" visibility="hidden" /><path d="M 1445.51 974 L 1639 974" fill="none" stroke="#526775" stroke-width="1.25" stroke-miterlimit="10" /><ellipse cx="1466.88" cy="974" rx="6" ry="6" fill="#ffffff" stroke="#526775" stroke-width="1.25" /><path d="M 1452.63 966.88 L 1452.63 981.13" fill="none" stroke="white" stroke-width="9.25" stroke-miterlimit="10" visibility="hidden" /><path d="M 1452.63 966.88 L 1452.63 981.13" fill="none" stroke="#526775" stroke-width="1.25" stroke-miterlimit="10" /><path d="M 1631.88 981.13 L 1631.88 966.88" fill="none" stroke="white" stroke-width="9.25" stroke-miterlimit="10" visibility="hidden" /><path d="M 1631.88 981.13 L 1631.88 966.88" fill="none" stroke="#526775" stroke-width="1.25" stroke-miterlimit="10" /></g><g transform="translate(0.5,0.5)"><path d="M 1445.51 1038 L 1619 1038 L 1619 1069 L 1639 1069" fill="none" stroke="white" stroke-width="9.25" stroke-miterlimit="10" visibility="hidden" /><path d="M 1445.51 1038 L 1619 1038 L 1619 1069 L 1639 1069" fill="none" stroke="#526775" stroke-width="1.25" stroke-miterlimit="10" /><ellipse cx="1466.88" cy="1038" rx="6" ry="6" fill="#ffffff" stroke="#526775" stroke-width="1.25" /><path d="M 1445.51 1045.13 L 1459.76 1038 L 1445.51 1030.88" fill="none" stroke="white" stroke-width="9.25" stroke-miterlimit="10" visibility="hidden" /><path d="M 1445.51 1045.13 L 1459.76 1038 L 1445.51 1030.88" fill="none" stroke="#526775" stroke-width="1.25" stroke-miterlimit="10" /><ellipse cx="1617.63" cy="1069" rx="6" ry="6" fill="#ffffff" stroke="#526775" stroke-width="1.25" /><path d="M 1631.88 1076.13 L 1631.88 1061.88" fill="none" stroke="white" stroke-width="9.25" stroke-miterlimit="10" visibility="hidden" /><path d="M 1631.88 1076.13 L 1631.88 1061.88" fill="none" stroke="#526775" stroke-width="1.25" stroke-miterlimit="10" /></g><g transform="translate(0.5,0.5)"><path d="M 1445.51 1006 L 1619 1006 L 1619 1164 L 1639 1164" fill="none" stroke="white" stroke-width="9.25" stroke-miterlimit="10" visibility="hidden" /><path d="M 1445.51 1006 L 1619 1006 L 1619 1164 L 1639 1164" fill="none" stroke="#526775" stroke-width="1.25" stroke-miterlimit="10" /><ellipse cx="1466.88" cy="1006" rx="6" ry="6" fill="#ffffff" stroke="#526775" stroke-width="1.25" /><path d="M 1445.51 1013.13 L 1459.76 1006 L 1445.51 998.88" fill="none" stroke="white" stroke-width="9.25" stroke-miterlimit="10" visibility="hidden" /><path d="M 1445.51 1013.13 L 1459.76 1006 L 1445.51 998.88" fill="none" stroke="#526775" stroke-width="1.25" stroke-miterlimit="10" /><path d="M 1631.88 1171.13 L 1631.88 1156.88" fill="none" stroke="white" stroke-width="9.25" stroke-miterlimit="10" visibility="hidden" /><path d="M 1631.88 1171.13 L 1631.88 1156.88" fill="none" stroke="#526775" stroke-width="1.25" stroke-miterlimit="10" /></g><g transform="translate(0.5,0.5)"><rect x="1109" y="1202" width="800" height="20" fill="none" stroke="white" visibility="hidden" stroke-width="9" /><rect x="1109" y="1202" width="800" height="20" fill="none" stroke="none" /></g><g><g /></g></g><g /><g /></g><text x="1111" y="848.5078125" fill="rgb(23, 62, 91)" dominant-baseline="central" font-size="21.9921875" font-family="Arial, Liberation Sans, sans-serif" font-weight="700">booking_finder_context</text><text x="1203.828125" y="942.5" fill="rgb(255, 255, 255)" dominant-baseline="central" font-size="12.994791666666668" font-family="Arial, Liberation Sans, sans-serif" font-weight="700">booking_finder_context</text><text x="1117" y="974.5078125" fill="rgb(23, 43, 58)" dominant-baseline="central" font-size="11.9921875" font-family="Arial, Liberation Sans, sans-serif" font-weight="700">PK FK booking_id</text><text x="1353" y="974.5078125" fill="rgb(23, 43, 58)" dominant-baseline="central" font-size="11.9921875" font-family="Arial, Liberation Sans, sans-serif" font-weight="400">uuid</text><text x="1117" y="1006.5078125" fill="rgb(23, 43, 58)" dominant-baseline="central" font-size="11.9921875" font-family="Arial, Liberation Sans, sans-serif" font-weight="400">FK selected_vehicle_id</text><text x="1353" y="1006.5078125" fill="rgb(23, 43, 58)" dominant-baseline="central" font-size="11.9921875" font-family="Arial, Liberation Sans, sans-serif" font-weight="400">uuid</text><text x="1117" y="1038.5078125" fill="rgb(23, 43, 58)" dominant-baseline="central" font-size="11.9921875" font-family="Arial, Liberation Sans, sans-serif" font-weight="400">FK preferred_category_id</text><text x="1353" y="1038.5078125" fill="rgb(23, 43, 58)" dominant-baseline="central" font-size="11.9921875" font-family="Arial, Liberation Sans, sans-serif" font-weight="400">uuid ?</text><text x="1668.078125" y="942.5" fill="rgb(51, 65, 85)" dominant-baseline="central" font-size="12.994791666666668" font-family="Arial, Liberation Sans, sans-serif" font-weight="700">booking_requests (ref)</text><text x="1647" y="974.5078125" fill="rgb(23, 43, 58)" dominant-baseline="central" font-size="11.9921875" font-family="Arial, Liberation Sans, sans-serif" font-weight="700">PK id</text><text x="1768" y="974.5078125" fill="rgb(23, 43, 58)" dominant-baseline="central" font-size="11.9921875" font-family="Arial, Liberation Sans, sans-serif" font-weight="400">uuid</text><text x="1668.890625" y="1037.5" fill="rgb(51, 65, 85)" dominant-baseline="central" font-size="12.994791666666668" font-family="Arial, Liberation Sans, sans-serif" font-weight="700">vehicle_categories (ref)</text><text x="1647" y="1069.5078125" fill="rgb(23, 43, 58)" dominant-baseline="central" font-size="11.9921875" font-family="Arial, Liberation Sans, sans-serif" font-weight="700">PK id</text><text x="1772" y="1069.5078125" fill="rgb(23, 43, 58)" dominant-baseline="central" font-size="11.9921875" font-family="Arial, Liberation Sans, sans-serif" font-weight="400">uuid</text><text x="1685.40625" y="1132.5" fill="rgb(51, 65, 85)" dominant-baseline="central" font-size="12.994791666666668" font-family="Arial, Liberation Sans, sans-serif" font-weight="700">vehicles (ref)</text><text x="1647" y="1164.5078125" fill="rgb(23, 43, 58)" dominant-baseline="central" font-size="11.9921875" font-family="Arial, Liberation Sans, sans-serif" font-weight="700">PK id</text><text x="1741" y="1164.5078125" fill="rgb(23, 43, 58)" dominant-baseline="central" font-size="11.9921875" font-family="Arial, Liberation Sans, sans-serif" font-weight="400">uuid</text></svg>