<svg xmlns="http://www.w3.org/2000/svg" viewBox="1089.5 811.5 853.8199462890625 433.0" width="853.8199462890625" height="433.0" style="background:white"><g><g /><g><g transform="translate(0.5,0.5)"><rect x="1109" y="831" width="800" height="34" fill="none" stroke="white" visibility="hidden" stroke-width="9" /><rect x="1109" y="831" width="800" height="34" fill="none" stroke="none" /></g><g><g /></g><g transform="translate(0.5,0.5)"><rect x="1109" y="866" width="800" height="25" fill="none" stroke="white" visibility="hidden" stroke-width="9" /><rect x="1109" y="866" width="800" height="25" fill="none" stroke="none" /></g><g><g /></g><g transform="translate(0.5,0.5)"><path d="M 1109 958 L 1109 926 L 1488.82 926 L 1488.82 958" fill="#173e5b" stroke="#718096" stroke-miterlimit="10" /><path d="M 1109 958 L 1109 1182 L 1488.82 1182 L 1488.82 958" fill="#ffffff" stroke="#718096" stroke-miterlimit="10" /><path d="M 1109 958 L 1488.82 958" fill="none" stroke="white" stroke-miterlimit="10" visibility="hidden" stroke-width="9" /><path d="M 1109 958 L 1488.82 958" fill="none" stroke="#718096" stroke-miterlimit="10" /></g><g><g /></g><g transform="translate(0.5,0.5)"><rect x="1109" y="958" width="265.88" height="32" fill="#f8fafc" stroke="#cbd5e1" /></g><g><g /></g><g transform="translate(0.5,0.5)"><rect x="1374.88" y="958" width="113.95" height="32" fill="#f8fafc" stroke="#cbd5e1" /></g><g><g /></g><g transform="translate(0.5,0.5)"><rect x="1109" y="990" width="265.88" height="32" fill="#ffffff" stroke="#cbd5e1" /></g><g><g /></g><g transform="translate(0.5,0.5)"><rect x="1374.88" y="990" width="113.95" height="32" fill="#ffffff" stroke="#cbd5e1" /></g><g><g /></g><g transform="translate(0.5,0.5)"><rect x="1109" y="1022" width="265.88" height="32" fill="#f8fafc" stroke="#cbd5e1" /></g><g><g /></g><g transform="translate(0.5,0.5)"><rect x="1374.88" y="1022" width="113.95" height="32" fill="#f8fafc" stroke="#cbd5e1" /></g><g><g /></g><g transform="translate(0.5,0.5)"><rect x="1109" y="1054" width="265.88" height="32" fill="#ffffff" stroke="#cbd5e1" /></g><g><g /></g><g transform="translate(0.5,0.5)"><rect x="1374.88" y="1054" width="113.95" height="32" fill="#ffffff" stroke="#cbd5e1" /></g><g><g /></g><g transform="translate(0.5,0.5)"><rect x="1109" y="1086" width="265.88" height="32" fill="#f8fafc" stroke="#cbd5e1" /></g><g><g /></g><g transform="translate(0.5,0.5)"><rect x="1374.88" y="1086" width="113.95" height="32" fill="#f8fafc" stroke="#cbd5e1" /></g><g><g /></g><g transform="translate(0.5,0.5)"><rect x="1109" y="1118" width="265.88" height="32" fill="#ffffff" stroke="#cbd5e1" /></g><g><g /></g><g transform="translate(0.5,0.5)"><rect x="1374.88" y="1118" width="113.95" height="32" fill="#ffffff" stroke="#cbd5e1" /></g><g><g /></g><g transform="translate(0.5,0.5)"><rect x="1109" y="1150" width="265.88" height="32" fill="#f8fafc" stroke="#cbd5e1" /></g><g><g /></g><g transform="translate(0.5,0.5)"><rect x="1374.88" y="1150" width="113.95" height="32" fill="#f8fafc" stroke="#cbd5e1" /></g><g><g /></g><g transform="translate(0.5,0.5)"><path d="M 1639 958 L 1639 926 L 1831.72 926 L 1831.72 958" fill="#e5ebf0" stroke="#718096" stroke-miterlimit="10" /><path d="M 1639 958 L 1639 990 L 1831.72 990 L 1831.72 958" fill="#ffffff" stroke="#718096" stroke-miterlimit="10" /><path d="M 1639 958 L 1831.72 958" fill="none" stroke="white" stroke-miterlimit="10" visibility="hidden" stroke-width="9" /><path d="M 1639 958 L 1831.72 958" fill="none" stroke="#718096" stroke-miterlimit="10" /></g><g><g /></g><g transform="translate(0.5,0.5)"><rect x="1639" y="958" width="114.72" height="32" fill="#f8fafc" stroke="#cbd5e1" /></g><g><g /></g><g transform="translate(0.5,0.5)"><rect x="1753.72" y="958" width="78" height="32" fill="#f8fafc" stroke="#cbd5e1" /></g><g><g /></g><g transform="translate(0.5,0.5)"><path d="M 1639 1053 L 1639 1021 L 1922.82 1021 L 1922.82 1053" fill="#e5ebf0" stroke="#718096" stroke-miterlimit="10" /><path d="M 1639 1053 L 1639 1085 L 1922.82 1085 L 1922.82 1053" fill="#ffffff" stroke="#718096" stroke-miterlimit="10" /><path d="M 1639 1053 L 1922.82 1053" fill="none" stroke="white" stroke-miterlimit="10" visibility="hidden" stroke-width="9" /><path d="M 1639 1053 L 1922.82 1053" fill="none" stroke="#718096" stroke-miterlimit="10" /></g><g><g /></g><g transform="translate(0.5,0.5)"><rect x="1639" y="1053" width="198.67" height="32" fill="#f8fafc" stroke="#cbd5e1" /></g><g><g /></g><g transform="translate(0.5,0.5)"><rect x="1837.67" y="1053" width="85.14" height="32" fill="#f8fafc" stroke="#cbd5e1" /></g><g><g /></g><g transform="translate(0.5,0.5)"><path d="M 1639 1148 L 1639 1116 L 1878.83 1116 L 1878.83 1148" fill="#e5ebf0" stroke="#718096" stroke-miterlimit="10" /><path d="M 1639 1148 L 1639 1180 L 1878.83 1180 L 1878.83 1148" fill="#ffffff" stroke="#718096" stroke-miterlimit="10" /><path d="M 1639 1148 L 1878.83 1148" fill="none" stroke="white" stroke-miterlimit="10" visibility="hidden" stroke-width="9" /><path d="M 1639 1148 L 1878.83 1148" fill="none" stroke="#718096" stroke-miterlimit="10" /></g><g><g /></g><g transform="translate(0.5,0.5)"><rect x="1639" y="1148" width="161.83" height="32" fill="#f8fafc" stroke="#cbd5e1" /></g><g><g /></g><g transform="translate(0.5,0.5)"><rect x="1800.83" y="1148" width="78" height="32" fill="#f8fafc" stroke="#cbd5e1" /></g><g><g /></g><g transform="translate(0.5,0.5)"><path d="M 1488.83 1102 L 1619 1102 L 1619 1069 L 1639 1069" fill="none" stroke="white" stroke-width="9.25" stroke-miterlimit="10" visibility="hidden" /><path d="M 1488.83 1102 L 1619 1102 L 1619 1069 L 1639 1069" fill="none" stroke="#526775" stroke-width="1.25" stroke-miterlimit="10" /><ellipse cx="1510.21" cy="1102" rx="6" ry="6" fill="#ffffff" stroke="#526775" stroke-width="1.25" /><path d="M 1488.83 1109.13 L 1503.08 1102 L 1488.83 1094.88" fill="none" stroke="white" stroke-width="9.25" stroke-miterlimit="10" visibility="hidden" /><path d="M 1488.83 1109.13 L 1503.08 1102 L 1488.83 1094.88" fill="none" stroke="#526775" stroke-width="1.25" stroke-miterlimit="10" /><path d="M 1631.88 1076.13 L 1631.88 1061.88" fill="none" stroke="white" stroke-width="9.25" stroke-miterlimit="10" visibility="hidden" /><path d="M 1631.88 1076.13 L 1631.88 1061.88" fill="none" stroke="#526775" stroke-width="1.25" stroke-miterlimit="10" /></g><g transform="translate(0.5,0.5)"><path d="M 1488.83 1070 L 1619 1070 L 1619 1069 L 1639 1069" fill="none" stroke="white" stroke-width="9.25" stroke-miterlimit="10" visibility="hidden" /><path d="M 1488.83 1070 L 1619 1070 L 1619 1069 L 1639 1069" fill="none" stroke="#526775" stroke-width="1.25" stroke-miterlimit="10" /><ellipse cx="1510.21" cy="1070" rx="6" ry="6" fill="#ffffff" stroke="#526775" stroke-width="1.25" /><path d="M 1488.83 1077.13 L 1503.08 1070 L 1488.83 1062.88" fill="none" stroke="white" stroke-width="9.25" stroke-miterlimit="10" visibility="hidden" /><path d="M 1488.83 1077.13 L 1503.08 1070 L 1488.83 1062.88" fill="none" stroke="#526775" stroke-width="1.25" stroke-miterlimit="10" /><path d="M 1631.88 1076.13 L 1631.88 1061.88" fill="none" stroke="white" stroke-width="9.25" stroke-miterlimit="10" visibility="hidden" /><path d="M 1631.88 1076.13 L 1631.88 1061.88" fill="none" stroke="#526775" stroke-width="1.25" stroke-miterlimit="10" /></g><g transform="translate(0.5,0.5)"><path d="M 1488.83 1134 L 1508.83 1134 L 1508.83 1069 L 1639 1069" fill="none" stroke="white" stroke-width="9.25" stroke-miterlimit="10" visibility="hidden" /><path d="M 1488.83 1134 L 1508.83 1134 L 1508.83 1069 L 1639 1069" fill="none" stroke="#526775" stroke-width="1.25" stroke-miterlimit="10" /><ellipse cx="1510.21" cy="1134" rx="6" ry="6" fill="#ffffff" stroke="#526775" stroke-width="1.25" /><path d="M 1488.83 1141.13 L 1503.08 1134 L 1488.83 1126.88" fill="none" stroke="white" stroke-width="9.25" stroke-miterlimit="10" visibility="hidden" /><path d="M 1488.83 1141.13 L 1503.08 1134 L 1488.83 1126.88" fill="none" stroke="#526775" stroke-width="1.25" stroke-miterlimit="10" /><ellipse cx="1617.63" cy="1069" rx="6" ry="6" fill="#ffffff" stroke="#526775" stroke-width="1.25" /><path d="M 1631.88 1076.13 L 1631.88 1061.88" fill="none" stroke="white" stroke-width="9.25" stroke-miterlimit="10" visibility="hidden" /><path d="M 1631.88 1076.13 L 1631.88 1061.88" fill="none" stroke="#526775" stroke-width="1.25" stroke-miterlimit="10" /></g><g transform="translate(0.5,0.5)"><path d="M 1488.83 1006 L 1508.82 1006 L 1508.82 1164 L 1639 1164" fill="none" stroke="white" stroke-width="9.25" stroke-miterlimit="10" visibility="hidden" /><path d="M 1488.83 1006 L 1508.82 1006 L 1508.82 1164 L 1639 1164" fill="none" stroke="#526775" stroke-width="1.25" stroke-miterlimit="10" /><ellipse cx="1510.21" cy="1006" rx="6" ry="6" fill="#ffffff" stroke="#526775" stroke-width="1.25" /><path d="M 1488.83 1013.13 L 1503.08 1006 L 1488.83 998.88" fill="none" stroke="white" stroke-width="9.25" stroke-miterlimit="10" visibility="hidden" /><path d="M 1488.83 1013.13 L 1503.08 1006 L 1488.83 998.88" fill="none" stroke="#526775" stroke-width="1.25" stroke-miterlimit="10" /><path d="M 1631.88 1171.13 L 1631.88 1156.88" fill="none" stroke="white" stroke-width="9.25" stroke-miterlimit="10" visibility="hidden" /><path d="M 1631.88 1171.13 L 1631.88 1156.88" fill="none" stroke="#526775" stroke-width="1.25" stroke-miterlimit="10" /></g><g transform="translate(0.5,0.5)"><path d="M 1488.83 1038 L 1619 1038 L 1619 974 L 1639 974" fill="none" stroke="white" stroke-width="9.25" stroke-miterlimit="10" visibility="hidden" /><path d="M 1488.83 1038 L 1619 1038 L 1619 974 L 1639 974" fill="none" stroke="#526775" stroke-width="1.25" stroke-miterlimit="10" /><ellipse cx="1510.21" cy="1038" rx="6" ry="6" fill="#ffffff" stroke="#526775" stroke-width="1.25" /><path d="M 1488.83 1045.13 L 1503.08 1038 L 1488.83 1030.88" fill="none" stroke="white" stroke-width="9.25" stroke-miterlimit="10" visibility="hidden" /><path d="M 1488.83 1045.13 L 1503.08 1038 L 1488.83 1030.88" fill="none" stroke="#526775" stroke-width="1.25" stroke-miterlimit="10" /><path d="M 1631.88 981.13 L 1631.88 966.88" fill="none" stroke="white" stroke-width="9.25" stroke-miterlimit="10" visibility="hidden" /><path d="M 1631.88 981.13 L 1631.88 966.88" fill="none" stroke="#526775" stroke-width="1.25" stroke-miterlimit="10" /></g><g transform="translate(0.5,0.5)"><path d="M 1488.83 1166 L 1619 1166 L 1619 1069 L 1639 1069" fill="none" stroke="white" stroke-width="9.25" stroke-miterlimit="10" visibility="hidden" /><path d="M 1488.83 1166 L 1619 1166 L 1619 1069 L 1639 1069" fill="none" stroke="#526775" stroke-width="1.25" stroke-miterlimit="10" /><ellipse cx="1510.21" cy="1166" rx="6" ry="6" fill="#ffffff" stroke="#526775" stroke-width="1.25" /><path d="M 1488.83 1173.13 L 1503.08 1166 L 1488.83 1158.88" fill="none" stroke="white" stroke-width="9.25" stroke-miterlimit="10" visibility="hidden" /><path d="M 1488.83 1173.13 L 1503.08 1166 L 1488.83 1158.88" fill="none" stroke="#526775" stroke-width="1.25" stroke-miterlimit="10" /><ellipse cx="1617.63" cy="1069" rx="6" ry="6" fill="#ffffff" stroke="#526775" stroke-width="1.25" /><path d="M 1631.88 1076.13 L 1631.88 1061.88" fill="none" stroke="white" stroke-width="9.25" stroke-miterlimit="10" visibility="hidden" /><path d="M 1631.88 1076.13 L 1631.88 1061.88" fill="none" stroke="#526775" stroke-width="1.25" stroke-miterlimit="10" /></g><g transform="translate(0.5,0.5)"><rect x="1109" y="1204" width="800" height="20" fill="none" stroke="white" visibility="hidden" stroke-width="9" /><rect x="1109" y="1204" width="800" height="20" fill="none" stroke="none" /></g><g><g /></g></g><g /><g /></g><text x="1111" y="848.5078125" fill="rgb(23, 62, 91)" dominant-baseline="central" font-size="21.9921875" font-family="Arial, Liberation Sans, sans-serif" font-weight="700">renter_requirement_reviews</text><text x="1212.421875" y="942.5" fill="rgb(255, 255, 255)" dominant-baseline="central" font-size="12.994791666666668" font-family="Arial, Liberation Sans, sans-serif" font-weight="700">renter_requirement_reviews</text><text x="1117" y="974.5078125" fill="rgb(23, 43, 58)" dominant-baseline="central" font-size="11.9921875" font-family="Arial, Liberation Sans, sans-serif" font-weight="700">PK id</text><text x="1383" y="974.5078125" fill="rgb(23, 43, 58)" dominant-baseline="central" font-size="11.9921875" font-family="Arial, Liberation Sans, sans-serif" font-weight="400">uuid</text><text x="1117" y="1006.5078125" fill="rgb(23, 43, 58)" dominant-baseline="central" font-size="11.9921875" font-family="Arial, Liberation Sans, sans-serif" font-weight="400">FK requirement_set_id</text><text x="1383" y="1006.5078125" fill="rgb(23, 43, 58)" dominant-baseline="central" font-size="11.9921875" font-family="Arial, Liberation Sans, sans-serif" font-weight="400">uuid</text><text x="1117" y="1038.5078125" fill="rgb(23, 43, 58)" dominant-baseline="central" font-size="11.9921875" font-family="Arial, Liberation Sans, sans-serif" font-weight="400">FK reviewer_id</text><text x="1383" y="1038.5078125" fill="rgb(23, 43, 58)" dominant-baseline="central" font-size="11.9921875" font-family="Arial, Liberation Sans, sans-serif" font-weight="400">uuid</text><text x="1117" y="1070.5078125" fill="rgb(23, 43, 58)" dominant-baseline="central" font-size="11.9921875" font-family="Arial, Liberation Sans, sans-serif" font-weight="400">FK government_id_document_id</text><text x="1383" y="1070.5078125" fill="rgb(23, 43, 58)" dominant-baseline="central" font-size="11.9921875" font-family="Arial, Liberation Sans, sans-serif" font-weight="400">uuid</text><text x="1117" y="1102.5078125" fill="rgb(23, 43, 58)" dominant-baseline="central" font-size="11.9921875" font-family="Arial, Liberation Sans, sans-serif" font-weight="400">FK drivers_license_document_id</text><text x="1383" y="1102.5078125" fill="rgb(23, 43, 58)" dominant-baseline="central" font-size="11.9921875" font-family="Arial, Liberation Sans, sans-serif" font-weight="400">uuid</text><text x="1117" y="1134.5078125" fill="rgb(23, 43, 58)" dominant-baseline="central" font-size="11.9921875" font-family="Arial, Liberation Sans, sans-serif" font-weight="400">FK proof_of_billing_document_id</text><text x="1383" y="1134.5078125" fill="rgb(23, 43, 58)" dominant-baseline="central" font-size="11.9921875" font-family="Arial, Liberation Sans, sans-serif" font-weight="400">uuid ?</text><text x="1117" y="1166.5078125" fill="rgb(23, 43, 58)" dominant-baseline="central" font-size="11.9921875" font-family="Arial, Liberation Sans, sans-serif" font-weight="400">FK selfie_with_id_document_id</text><text x="1383" y="1166.5078125" fill="rgb(23, 43, 58)" dominant-baseline="central" font-size="11.9921875" font-family="Arial, Liberation Sans, sans-serif" font-weight="400">uuid ?</text><text x="1697.578125" y="942.5" fill="rgb(51, 65, 85)" dominant-baseline="central" font-size="12.994791666666668" font-family="Arial, Liberation Sans, sans-serif" font-weight="700">profiles (ref)</text><text x="1647" y="974.5078125" fill="rgb(23, 43, 58)" dominant-baseline="central" font-size="11.9921875" font-family="Arial, Liberation Sans, sans-serif" font-weight="700">PK FK id</text><text x="1762" y="974.5078125" fill="rgb(23, 43, 58)" dominant-baseline="central" font-size="11.9921875" font-family="Arial, Liberation Sans, sans-serif" font-weight="400">uuid</text><text x="1669.171875" y="1037.5" fill="rgb(51, 65, 85)" dominant-baseline="central" font-size="12.994791666666668" font-family="Arial, Liberation Sans, sans-serif" font-weight="700">renter_requirement_documents (ref)</text><text x="1647" y="1069.5078125" fill="rgb(23, 43, 58)" dominant-baseline="central" font-size="11.9921875" font-family="Arial, Liberation Sans, sans-serif" font-weight="700">PK id</text><text x="1846" y="1069.5078125" fill="rgb(23, 43, 58)" dominant-baseline="central" font-size="11.9921875" font-family="Arial, Liberation Sans, sans-serif" font-weight="400">uuid</text><text x="1668.828125" y="1132.5" fill="rgb(51, 65, 85)" dominant-baseline="central" font-size="12.994791666666668" font-family="Arial, Liberation Sans, sans-serif" font-weight="700">renter_requirement_sets (ref)</text><text x="1647" y="1164.5078125" fill="rgb(23, 43, 58)" dominant-baseline="central" font-size="11.9921875" font-family="Arial, Liberation Sans, sans-serif" font-weight="700">PK id</text><text x="1809" y="1164.5078125" fill="rgb(23, 43, 58)" dominant-baseline="central" font-size="11.9921875" font-family="Arial, Liberation Sans, sans-serif" font-weight="400">uuid</text></svg>